# xmcd
#
# Track frame offsets:
#	150
#	27762
#	56372
#	88825
#	128225
#	162800
#	191550
#	215967
#	237967
#	249225
#	267000
#	283890
#
# Disc length: 4195 seconds
#
# Revision: 1
# Processed by: cddbd v1.4PL0 Copyright (c) Steve Scherf et al.
# Submitted via: audiograbber 1.82.01
#
DISCID=a910610c
DTITLE=clapton, eric - 1992 - live royal albert hall cd 1
DYEAR=1992
DGENRE=Blues
TTITLE0=white room
TTITLE1=anything for your love
TTITLE2=pretending
TTITLE3=i shot the sheriff
TTITLE4=running on faith
TTITLE5=she's waiting
TTITLE6=circus left town
TTITLE7=tears in heaven
TTITLE8=signe
TTITLE9=worried life blues
TTITLE10=nowbody knows you
TTITLE11=tearing us apart
EXTD=
EXTT0=
EXTT1=
EXTT2=
EXTT3=
EXTT4=
EXTT5=
EXTT6=
EXTT7=
EXTT8=
EXTT9=
EXTT10=
EXTT11=
PLAYORDER=
